<svg width="37" height="49" viewBox="0 0 37 49" fill="none" xmlns="http://www.w3.org/2000/svg">
<path d="M3.06 2.21008C1.36996 2.21008 0 3.09411 0 4.42014V6.6302V8.84026V11.0503V13.2604V15.4704V17.6805V19.8905V22.1006V28.7308V30.9408V33.1509V35.361V37.571V39.7811V41.9911V44.2012V46.4112C0 47.5163 1.36996 48.6213 3.06 48.6213H18.36H27.54H30.6H33.66C35.3491 48.6213 36.72 47.5163 36.72 46.4112V44.2012V41.9911V39.7811V37.571V35.361V33.1509V30.9408V28.7308V13.2604V11.0503V8.84026V6.6302V4.42014C36.72 3.09411 35.3491 2.21008 33.66 2.21008H18.36H9.18H6.12H3.06Z" fill="#95A5A6"/>
<path d="M3.06 0C1.36996 0 0 0.884023 0 2.21006V4.42012V6.63017V8.84023V11.0503V13.2603V15.4704V17.6805V19.8905V26.5207V28.7308V30.9408V33.1509V35.3609V37.571V39.781V41.9911V44.2012C0 45.3062 1.36996 46.4112 3.06 46.4112H18.36H27.54H30.6H33.66C35.3491 46.4112 36.72 45.3062 36.72 44.2012V41.9911V39.781V37.571V35.3609V33.1509V30.9408V28.7308V26.5207V11.0503V8.84023V6.63017V4.42012V2.21006C36.72 0.884023 35.3491 0 33.66 0H18.36H9.18H6.12H3.06Z" fill="#BDC3C7"/>
<path d="M21.4202 43.0962C21.4202 43.6823 21.0978 44.2444 20.5239 44.6589C19.9501 45.0734 19.1717 45.3062 18.3602 45.3062C17.5486 45.3062 16.7703 45.0734 16.1964 44.6589C15.6226 44.2444 15.3002 43.6823 15.3002 43.0962C15.3002 42.51 15.6226 41.9479 16.1964 41.5334C16.7703 41.119 17.5486 40.8861 18.3602 40.8861C19.1717 40.8861 19.9501 41.119 20.5239 41.5334C21.0978 41.9479 21.4202 42.51 21.4202 43.0962Z" fill="#95A5A6"/>
<path d="M3.06015 6.63013H33.6602V39.781H3.06015V6.63013Z" fill="#2C3E50"/>
<path d="M3.06015 4.42017V30.9409L33.6602 12.5973V4.42017H3.06015Z" fill="#34495E"/>
<path d="M9.17984 0H27.5398V2.21006H9.17984V0Z" fill="#95A5A6"/>
</svg>
