<svg width="42" height="50" viewBox="0 0 42 50" fill="none" xmlns="http://www.w3.org/2000/svg">
<path d="M20.5855 0C9.21636 0 0 7.38122 0 16.4865C0 19.4149 0.981926 22.1538 2.65347 24.5361C2.93111 24.9317 3.22214 25.3212 3.53813 25.6963L20.5855 49.4596L37.6328 25.6963C37.8952 25.3851 38.1217 25.0554 38.3559 24.7298L38.518 24.5361C40.188 22.1538 41.1709 19.4149 41.1709 16.4865C41.1709 7.38122 31.9538 0 20.5855 0ZM20.5855 8.24326C26.2696 8.24326 30.8782 11.934 30.8782 16.4865C30.8782 21.0389 26.2696 24.7298 20.5855 24.7298C14.901 24.7298 10.2927 21.0389 10.2927 16.4865C10.2927 11.934 14.901 8.24326 20.5855 8.24326Z" fill="#E74C3C"/>
<path d="M20.5855 6.1825C13.4799 6.1825 7.71954 10.7958 7.71954 16.4866C7.71954 22.1765 13.4799 26.7907 20.5855 26.7907C27.69 26.7907 33.4514 22.1765 33.4514 16.4866C33.4514 10.7958 27.69 6.1825 20.5855 6.1825ZM20.5855 10.3041C24.8492 10.3041 28.305 13.072 28.305 16.4866C28.305 19.9011 24.8492 22.669 20.5855 22.669C16.3217 22.669 12.8659 19.9011 12.8659 16.4866C12.8659 13.072 16.3217 10.3041 20.5855 10.3041Z" fill="#C0392B"/>
</svg>
