<svg width="68" height="70" viewBox="0 0 68 70" fill="none" xmlns="http://www.w3.org/2000/svg">
<path d="M33.725 26.5511C32.1368 26.5518 30.5844 27.039 29.2642 27.9512C27.9439 28.8635 26.9151 30.1597 26.3077 31.6762C25.7003 33.1926 25.5417 34.8611 25.8519 36.4706C26.1621 38.0802 26.9272 39.5586 28.0505 40.7188C29.1737 41.8791 30.6047 42.6692 32.1624 42.9891C33.7201 43.3091 35.3347 43.1445 36.8019 42.5163C38.2692 41.8882 39.5233 40.8245 40.4056 39.4599C41.2879 38.0952 41.7588 36.4909 41.7588 34.8497C41.7572 32.6488 40.9102 30.5385 39.4038 28.9825C37.8974 27.4264 35.8549 26.552 33.725 26.5511ZM52.5011 20.1724C52.0923 19.1018 51.4749 18.1294 50.6873 17.3155C49.8997 16.5016 48.9587 15.8637 47.9226 15.4412C44.7609 14.1515 37.233 14.4409 33.725 14.4409C30.217 14.4409 22.6966 14.1406 19.5259 15.4412C18.4898 15.8637 17.5488 16.5016 16.7612 17.3155C15.9736 18.1294 15.3562 19.1018 14.9474 20.1724C13.7008 23.4396 13.9793 31.2263 13.9793 34.8482C13.9793 38.4701 13.7008 46.2475 14.9534 49.5255C15.3623 50.5962 15.9796 51.5686 16.7672 52.3824C17.5548 53.1963 18.4958 53.8342 19.5319 54.2567C22.6936 55.5464 30.2215 55.2571 33.731 55.2571C37.2405 55.2571 44.7579 55.5573 47.9286 54.2567C48.9647 53.8342 49.9057 53.1963 50.6933 52.3824C51.4809 51.5686 52.0983 50.5962 52.5071 49.5255C53.7643 46.2584 53.4752 38.4716 53.4752 34.8497C53.4752 31.2279 53.7643 23.452 52.5071 20.174L52.5011 20.1724ZM33.725 47.6072C31.2832 47.6072 28.8963 46.859 26.8661 45.4572C24.8358 44.0554 23.2534 42.0629 22.319 39.7318C21.3846 37.4007 21.1401 34.8356 21.6165 32.3609C22.0928 29.8862 23.2686 27.613 24.9952 25.8288C26.7218 24.0447 28.9216 22.8296 31.3165 22.3374C33.7113 21.8451 36.1936 22.0978 38.4495 23.0634C40.7054 24.0289 42.6336 25.6641 43.9901 27.7621C45.3467 29.86 46.0708 32.3265 46.0708 34.8497C46.0727 36.5257 45.7548 38.1855 45.135 39.7342C44.5153 41.283 43.606 42.6902 42.4592 43.8752C41.3124 45.0603 39.9506 45.9999 38.4519 46.6403C36.9531 47.2807 35.3468 47.6093 33.725 47.6072ZM46.5796 24.5348C46.0096 24.5351 45.4523 24.3608 44.9783 24.0337C44.5042 23.7067 44.1346 23.2418 43.9162 22.6977C43.6979 22.1536 43.6406 21.5548 43.7516 20.9771C43.8627 20.3993 44.137 19.8686 44.5399 19.452C44.9429 19.0354 45.4564 18.7516 46.0154 18.6366C46.5744 18.5216 47.1539 18.5805 47.6806 18.8058C48.2072 19.0311 48.6574 19.4128 48.9741 19.9025C49.2908 20.3923 49.4598 20.968 49.4598 21.5571C49.4614 21.9482 49.3882 22.3358 49.2445 22.6977C49.1008 23.0595 48.8894 23.3885 48.6224 23.6658C48.3553 23.943 48.038 24.163 47.6885 24.3132C47.339 24.4634 46.9642 24.5409 46.5857 24.5411L46.5796 24.5348ZM60.2232 0H7.22679C5.31012 0 3.47196 0.786784 2.11668 2.18727C0.761391 3.58775 0 5.48722 0 7.4678L0 62.2317C0 64.2123 0.761391 66.1117 2.11668 67.5122C3.47196 68.9127 5.31012 69.6995 7.22679 69.6995H60.2232C62.1399 69.6995 63.978 68.9127 65.3333 67.5122C66.6886 66.1117 67.45 64.2123 67.45 62.2317V7.4678C67.45 5.48722 66.6886 3.58775 65.3333 2.18727C63.978 0.786784 62.1399 0 60.2232 0ZM57.6457 45.118C57.4514 49.1055 56.5707 52.6387 53.7537 55.5418C50.9368 58.4449 47.5206 59.3737 43.6663 59.5635C39.6901 59.7953 27.7689 59.7953 23.7927 59.5635C19.9339 59.3628 16.5268 58.4511 13.7053 55.5418C10.8838 52.6324 9.99705 49.0977 9.81337 45.118C9.58904 41.0076 9.58904 28.6872 9.81337 24.5815C10.0076 20.594 10.8778 17.0608 13.7053 14.1577C16.5328 11.2546 19.9489 10.3367 23.7927 10.1469C27.7689 9.91506 39.6901 9.91506 43.6663 10.1469C47.5251 10.3476 50.9428 11.2593 53.7537 14.1686C56.5647 17.0779 57.462 20.6127 57.6457 24.6002C57.87 28.695 57.87 41.0045 57.6457 45.118Z" fill="black"/>
</svg>
