<svg width="49" height="28" viewBox="0 0 49 28" fill="none" xmlns="http://www.w3.org/2000/svg">
<path d="M4.43012 1.62732C1.98336 1.62732 0 3.09188 0 4.88189V9.76374V13.0183V16.2729V19.5274V24.4093C0 26.1993 1.98336 27.6639 4.43012 27.6639H24.3657H44.3012C46.7488 27.6639 48.7313 26.1993 48.7313 24.4093V13.0183V9.76374V4.88189C48.7313 3.09188 46.7488 1.62732 44.3012 1.62732H24.3657H4.43012Z" fill="#7F8C8D"/>
<path d="M4.43012 0C1.98336 0 0 1.46456 0 3.25457V8.13642V11.391V14.6456V17.9001V22.782C0 24.572 1.98336 26.0365 4.43012 26.0365H24.3657H44.3012C46.7488 26.0365 48.7313 24.572 48.7313 22.782V11.391V8.13642V3.25457C48.7313 1.46456 46.7488 0 44.3012 0H24.3657H4.43012Z" fill="#BDC3C7"/>
<path d="M4.43009 26.0366C3.20672 26.0366 2.11691 25.5485 1.31528 25.0603L24.3652 8.13647L47.4151 25.0603C46.6132 25.5485 45.5234 26.0366 44.3007 26.0366H4.43009Z" fill="#95A5A6"/>
<path d="M1.86896 1.62732L24.3651 21.1547L46.8612 1.62732H1.86896Z" fill="#7F8C8D"/>
<path d="M4.43009 0C3.20672 0 2.11691 0.325417 1.31528 0.976331L24.3652 17.9001L47.4151 0.976331C46.6132 0.325417 45.5234 0 44.3007 0H4.43009Z" fill="#ECF0F1"/>
</svg>
