<svg width="21" height="21" viewBox="0 0 21 21" fill="none" xmlns="http://www.w3.org/2000/svg">
<path d="M10.651 0.253296C7.91363 0.253296 5.68662 2.4803 5.68662 5.21765V8.19626H4.69375C3.59861 8.19626 2.70801 9.08686 2.70801 10.182L2.70801 18.125C2.70801 19.2201 3.59861 20.1107 4.69375 20.1107H16.6082C17.7033 20.1107 18.5939 19.2201 18.5939 18.125V10.182C18.5939 9.08686 17.7033 8.19626 16.6082 8.19626H15.6153V5.21765C15.6153 2.4803 13.3883 0.253296 10.651 0.253296ZM16.6082 10.182L16.6102 18.125H4.69375L4.69375 10.182H16.6082ZM7.67236 8.19626V5.21765C7.67236 3.57544 9.00876 2.23904 10.651 2.23904C12.2932 2.23904 13.6296 3.57544 13.6296 5.21765V8.19626H7.67236Z" fill="#787878"/>
</svg>
