<svg width="19" height="20" viewBox="0 0 19 20" fill="none" xmlns="http://www.w3.org/2000/svg">
<g clip-path="url(#clip0_69_1199)">
<path d="M16.434 18.7016C16.9221 19.1898 17.7136 19.1898 18.2017 18.7016C18.6899 18.2134 18.6899 17.422 18.2017 16.9338L16.434 18.7016ZM13.3086 8.62031C13.3086 11.4857 10.9858 13.8085 8.12043 13.8085V16.3085C12.3665 16.3085 15.8086 12.8664 15.8086 8.62031H13.3086ZM8.12043 13.8085C5.25508 13.8085 2.93225 11.4857 2.93225 8.62031H0.432251C0.432251 12.8664 3.87437 16.3085 8.12043 16.3085V13.8085ZM2.93225 8.62031C2.93225 5.75496 5.25508 3.43213 8.12043 3.43213V0.932129C3.87437 0.932129 0.432251 4.37425 0.432251 8.62031H2.93225ZM8.12043 3.43213C10.9858 3.43213 13.3086 5.75496 13.3086 8.62031H15.8086C15.8086 4.37425 12.3665 0.932129 8.12043 0.932129V3.43213ZM11.8353 14.1029L16.434 18.7016L18.2017 16.9338L13.603 12.3351L11.8353 14.1029Z" fill="white"/>
</g>
<defs>
<clipPath id="clip0_69_1199">
<rect width="19" height="19" fill="white" transform="translate(0 0.5)"/>
</clipPath>
</defs>
</svg>
