<svg width="21" height="21" viewBox="0 0 21 21" fill="none" xmlns="http://www.w3.org/2000/svg">
<path d="M19.3569 17.0887C18.883 15.966 18.1952 14.9462 17.3318 14.0862C16.4711 13.2236 15.4515 12.5359 14.3293 12.0611C14.3193 12.056 14.3092 12.0535 14.2992 12.0485C15.8645 10.9178 16.8821 9.07613 16.8821 6.99825C16.8821 3.55603 14.0931 0.76709 10.6509 0.76709C7.2087 0.76709 4.41976 3.55603 4.41976 6.99825C4.41976 9.07613 5.43734 10.9178 7.00267 12.051C6.99262 12.056 6.98257 12.0585 6.97252 12.0636C5.84689 12.5384 4.83684 13.2194 3.97001 14.0887C3.10747 14.9494 2.41977 15.969 1.94488 17.0912C1.47835 18.1898 1.22675 19.3677 1.20368 20.5611C1.20301 20.5879 1.20771 20.6146 1.21751 20.6395C1.22731 20.6645 1.24201 20.6873 1.26074 20.7065C1.27947 20.7257 1.30186 20.7409 1.32658 20.7513C1.3513 20.7617 1.37786 20.7671 1.40468 20.7671H2.91222C3.02277 20.7671 3.11071 20.6792 3.11322 20.5711C3.16348 18.6314 3.94237 16.8148 5.31925 15.4379C6.74388 14.0133 8.63584 13.2294 10.6509 13.2294C12.666 13.2294 14.5579 14.0133 15.9826 15.4379C17.3595 16.8148 18.1383 18.6314 18.1886 20.5711C18.1911 20.6817 18.2791 20.7671 18.3896 20.7671H19.8971C19.924 20.7671 19.9505 20.7617 19.9752 20.7513C20 20.7409 20.0224 20.7257 20.0411 20.7065C20.0598 20.6873 20.0745 20.6645 20.0843 20.6395C20.0941 20.6146 20.0988 20.5879 20.0981 20.5611C20.073 19.3601 19.8243 18.1917 19.3569 17.0887ZM10.6509 11.3199C9.49765 11.3199 8.41222 10.8701 7.59564 10.0535C6.77905 9.23694 6.3293 8.15151 6.3293 6.99825C6.3293 5.84498 6.77905 4.75955 7.59564 3.94297C8.41222 3.12639 9.49765 2.67664 10.6509 2.67664C11.8042 2.67664 12.8896 3.12639 13.7062 3.94297C14.5228 4.75955 14.9725 5.84498 14.9725 6.99825C14.9725 8.15151 14.5228 9.23694 13.7062 10.0535C12.8896 10.8701 11.8042 11.3199 10.6509 11.3199Z" fill="#787878"/>
</svg>
